<svg xmlns="http://www.w3.org/2000/svg" viewBox="0 0 165 60" id="logo-svg">
	<style>
		.helix .front {
			fill: white;
		}
		.helix .back {
			fill: black;
		}
		.digits {
			font-style: normal;
			font-weight: normal;
			font-size: 12px;
			font-family: sans-serif;
			letter-spacing: 0;
			fill: white;
		}
	</style>
	<switch>
		<g class="helix">
			<path class="back last" d="M136.33.78c-13.43 0-21.42 28.77-21.42 28.77-5.27 15.19-8.31 19.18-8.31 19.18-4.24 6.41-9.76 7.78-13.62 7.89-4.88.09-8.16-3.73-8.16-3.73 11.66 7.14 17.94-9.45 19.38-12.96 1.44-3.52 8.95-23.66 8.95-23.66S119.38.61 132.66.44c-.01.02 1.89.03 3.67.34z"></path>
			<path class="back" d="M29.07 56.15c13.42 0 21.42-28.77 21.42-28.77 4.55-13.1 7.43-17.87 8.14-18.93 5.89-8.58 15.49-7.44 15.49-7.44s3.37.03 6.61 2.87C68.4-2.7 62.64 13.48 61.2 17c-1.44 3.52-8.95 23.66-8.95 23.66s-6.23 15.66-19.5 15.82c0 0-1.94-.02-3.68-.33z"></path>
			<path class="back last" d="M165.4.78c-13.43 0-21.42 28.77-21.42 28.77-5.27 15.19-8.31 19.18-8.31 19.18-4.24 6.41-9.76 7.78-13.62 7.89-4.87.09-8.16-3.73-8.16-3.73 11.66 7.14 17.95-9.45 19.38-12.96 1.44-3.52 8.95-23.66 8.95-23.66S148.45.61 161.72.44c0 .02 1.9.03 3.68.34z"></path>
			<path class="back" d="M0 56.15c13.42 0 21.41-28.77 21.41-28.77 4.55-13.1 7.43-17.87 8.14-18.93 5.89-8.58 15.49-7.44 15.49-7.44s3.37.03 6.61 2.87C39.33-2.7 33.56 13.48 32.12 17c-1.44 3.52-8.95 23.66-8.95 23.66s-6.23 15.66-19.5 15.82c0 0-1.93-.02-3.67-.33z"></path>
			
			<text class="digits">
				<tspan x="5" y="33">011000010110001001100101</tspan>
			</text>

			<path class="front" d="M74.12 1.15S64.45 0 58.53 8.66c0 0 4.2-8.66 16.25-8.66 0 0 11.33.22 17.21 8.81 0 0 3.34 3.59 8.64 18.86 0 0 8.6 28.49 21.55 28.95 0 0-1.14.29-3.72.29C105.14 56.75 98.87 41 98.87 41s-7.56-20.25-9-23.78c-1.45-3.54-7.39-16.07-16.55-16.07"></path>
			<path class="front" d="M45.05 1.15S35.38 0 29.46 8.66c0 0 4.2-8.66 16.26-8.66 0 0 11.33.22 17.21 8.81 0 0 3.34 3.59 8.64 18.86 0 0 8.6 28.49 21.55 28.95 0 0-1.14.29-3.72.29C76.06 56.75 69.8 41 69.8 41s-7.55-20.25-9-23.78c-1.45-3.54-7.4-16.07-16.55-16.07"></path>
		</g>
	</switch>
</svg>